<?xml version="1.0" encoding="UTF-8" standalone="no"?>
<!DOCTYPE svg PUBLIC "-//W3C//DTD SVG 1.1//EN" "http://www.w3.org/Graphics/SVG/1.1/DTD/svg11.dtd">
<svg width="288.00" height="278.00" viewBox="0.00 0.00 288.00 278.00" xmlns="http://www.w3.org/2000/svg" xmlns:xlink="http://www.w3.org/1999/xlink">
<g stroke-linecap="round" id="Layer_2">
<path d="M101.12,151.43 C101.12,151.43 82.61,114.08 82.61,114.08 C82.61,114.08 83.64,98.65 86.39,93.50 C89.13,88.36 79.76,98.16 79.76,98.16 C79.76,98.16 65.68,97.98 65.68,97.04 C65.68,96.10 76.95,56.84 76.95,56.84 C76.95,56.84 74.00,13.59 109.91,8.14 C149.68,1.09 162.18,32.45 162.18,32.45 C160.59,37.00 153.32,33.82 153.32,33.82 C153.32,33.82 139.91,17.68 120.82,21.09 C101.73,24.50 100.82,44.05 100.82,44.05 C105.36,48.59 105.14,39.95 105.14,39.95 C105.14,39.95 116.50,39.27 116.50,39.27 C116.50,39.27 114.45,54.95 107.18,60.86 C112.41,69.50 119.68,74.05 119.68,74.05 C119.68,74.05 117.64,105.18 117.64,105.18 C117.64,105.18 127.41,109.50 131.73,114.50 C139.23,117.45 138.77,105.86 138.77,105.86 C132.18,97.00 134.45,92.45 146.27,83.82 C146.05,73.59 143.55,66.32 143.55,66.32 C143.55,66.32 149.00,57.23 162.86,53.82 C168.32,53.59 169.91,40.41 169.91,40.41 C169.91,40.41 177.64,32.68 191.50,40.18 C199.00,43.59 204.68,34.05 204.68,34.05 C204.68,34.05 212.18,27.91 217.18,40.41 C221.95,39.95 219.45,38.14 229.68,37.23 C230.59,43.36 230.59,49.50 230.59,49.50 C230.59,49.50 239.68,48.59 239.68,48.59 C239.68,48.59 242.86,57.68 236.95,62.00 C244.68,69.27 258.48,80.19 258.48,80.19 C258.48,80.19 243.52,99.37 243.52,99.37 C243.52,99.37 237.19,96.00 237.19,96.00 C237.19,96.00 222.23,91.36 228.97,98.53 C235.09,98.95 241.50,99.08 241.50,99.08 C241.50,99.08 243.96,109.06 240.09,111.78 C237.89,112.00 222.89,112.14 222.89,112.14 C222.89,112.14 224.41,118.13 221.51,120.52 C218.60,122.91 211.26,122.74 211.26,122.74 C211.26,122.74 214.25,131.79 214.25,139.49 C214.25,147.19 215.37,159.77 215.37,159.77 C215.37,159.77 231.90,170.10 234.35,173.30 C236.79,176.49 242.80,170.67 242.80,170.67 C248.43,170.48 246.55,187.38 246.55,187.38 C246.55,187.38 236.04,194.90 230.96,194.52 C225.89,194.15 194.68,184.50 190.59,182.23 C186.50,179.95 182.18,176.32 181.50,170.18 C179.00,165.18 177.54,171.32 177.54,171.32 C177.54,171.32 159.06,189.10 132.25,194.75 C131.75,199.75 129.50,219.75 129.50,219.75 C129.50,219.75 111.50,229.50 106.75,228.75 C102.00,228.00 103.50,250.25 103.50,250.25 C103.50,250.25 113.00,248.50 115.75,251.50 C118.50,254.50 117.25,267.50 117.25,267.50 C117.25,267.50 81.75,267.50 81.75,267.50 C81.75,267.50 75.25,229.50 73.25,223.25 C71.25,217.00 72.75,212.25 72.75,212.25 C72.75,212.25 85.50,199.25 85.50,199.25 C85.50,199.25 86.25,189.00 77.25,194.00 C74.75,196.50 55.50,208.00 55.50,208.00 C55.50,208.00 10.60,184.30 10.60,184.30 C10.60,184.30 22.41,101.62 22.41,101.62 C22.41,101.62 76.73,102.45 76.73,102.45 C76.73,102.45 76.27,117.91 72.64,127.23 C75.36,128.36 78.55,128.14 78.55,128.14 C78.55,128.14 76.76,147.91 68.13,159.50 C64.63,159.63 60.88,160.00 60.88,160.00 C60.88,160.00 57.25,170.63 65.88,174.13 C58.38,169.63 47.25,175.88 47.25,175.88 C47.25,175.88 58.25,170.13 55.13,159.88 C53.00,159.88 50.00,160.00 49.38,159.00 C48.75,158.00 45.13,145.13 45.25,125.88 C48.38,125.88 56.50,125.75 56.50,125.75 C56.50,125.75 55.74,118.85 55.74,118.85 C55.74,118.85 37.39,118.36 37.39,118.36 C37.39,118.36 31.84,168.82 29.67,176.54 C41.25,180.89 53.32,188.85 53.32,188.85 C53.32,188.85 81.57,171.47 81.57,171.47 C88.81,156.50 101.12,151.43 101.12,151.43 Z" fill="none" stroke="rgb(183, 32, 96)" stroke-width="2.00" stroke-opacity="1.00" stroke-linejoin="round"/>
<path d="M170.24,183.16 C170.24,183.16 139.45,198.65 136.36,198.45 C133.26,198.24 132.84,229.85 132.84,229.85 C132.84,229.85 159.91,264.77 159.91,264.77 C159.91,264.77 186.56,264.56 186.56,264.56 C186.56,264.56 188.01,253.20 186.15,248.65 C181.19,246.79 173.34,247.62 173.34,247.62 C173.34,247.62 170.45,232.12 167.55,225.93 C164.66,219.73 170.03,218.69 170.03,218.69 C175.40,213.32 172.72,199.69 172.72,199.69 C172.72,199.69 170.24,183.16 170.24,183.16 Z" fill="none" stroke="rgb(183, 32, 96)" stroke-width="2.00" stroke-opacity="1.00" stroke-linejoin="round"/>
<path d="M218.76,136.86 C218.76,136.86 220.07,157.52 220.07,157.52 C220.07,157.52 232.84,163.90 235.85,167.10 C238.85,170.29 242.99,165.22 242.99,165.22 C242.99,165.22 261.58,157.33 270.97,155.26 C272.29,153.76 271.16,134.42 271.16,134.42 C271.16,134.42 262.90,129.16 261.02,131.03 C259.14,132.91 258.58,143.99 258.58,143.99 C243.92,152.45 244.86,143.62 244.86,143.62 C234.91,125.78 218.76,136.86 218.76,136.86 Z" fill="none" stroke="rgb(183, 32, 96)" stroke-width="2.00" stroke-opacity="1.00" stroke-linejoin="round"/>
<path d="M106.67,36.71 C106.67,36.71 110.86,23.82 124.05,22.58 C146.56,22.74 156.96,48.04 156.96,48.04 C153.39,50.37 149.66,46.64 149.66,46.64 C141.75,27.08 116.29,32.52 116.29,32.52 C110.86,37.17 106.67,36.71 106.67,36.71 Z" fill="none" stroke="rgb(183, 32, 96)" stroke-width="2.00" stroke-opacity="1.00" stroke-linejoin="round"/>
</g>
</svg>
